<svg width="173" height="24" viewBox="0 0 173 24" fill="none" xmlns="http://www.w3.org/2000/svg">
<path fill-rule="evenodd" clip-rule="evenodd" d="M12.415 21.7413C12.2775 21.7471 12.1392 21.75 12.0002 21.75C10.5877 21.75 9.24529 21.4496 8.03344 20.9092C7.80165 20.8059 7.57463 20.6937 7.35282 20.5732C4.31349 18.9222 2.25024 15.702 2.25024 12C2.25024 6.61522 6.61547 2.25 12.0002 2.25C14.8901 2.25 17.4863 3.50727 19.2718 5.50466C20.2941 6.64833 21.0505 8.03465 21.4441 9.56655C21.4639 9.64337 21.4827 9.72055 21.5006 9.79809C21.6639 10.5057 21.7502 11.2428 21.7502 12C21.7502 17.2458 17.6074 21.524 12.415 21.7413ZM20.2502 12C20.2502 16.5563 16.5566 20.25 12.0002 20.25C11.9114 20.25 11.8229 20.2486 11.7348 20.2458C11.4534 19.4148 11.3008 18.5243 11.3008 17.5983C11.3008 13.0419 14.9944 9.34827 19.5508 9.34827C19.6396 9.34827 19.7281 9.34967 19.8163 9.35246C20.0977 10.1835 20.2502 11.0739 20.2502 12ZM8.94092 19.6642C9.31675 19.8143 9.70621 19.9376 10.1069 20.0317C9.90708 19.2539 9.8008 18.4385 9.8008 17.5983C9.8008 12.3524 13.9437 8.07422 19.1361 7.85693C18.9088 7.46637 18.6504 7.09617 18.3643 6.74973C17.4183 6.37176 16.3859 6.16388 15.3049 6.16388C10.7486 6.16388 7.05495 9.85753 7.05495 14.4139C7.05495 16.4085 7.76277 18.2377 8.94092 19.6642ZM6.17447 17.8415C5.77399 16.7752 5.55495 15.6201 5.55495 14.4139C5.55495 9.0291 9.92017 4.66388 15.3049 4.66388C15.4717 4.66388 15.6375 4.66807 15.8022 4.67634C14.6644 4.0845 13.3714 3.75 12.0002 3.75C7.44389 3.75 3.75024 7.44365 3.75024 12C3.75024 14.2822 4.6769 16.3479 6.17447 17.8415Z" fill="#F2F2F2"/>
<path d="M37.838 11.89C38.4447 12.0207 38.9347 12.31 39.308 12.758C39.6907 13.206 39.882 13.7333 39.882 14.34C39.882 15.1427 39.6067 15.7867 39.056 16.272C38.5147 16.7573 37.726 17 36.69 17H33.022V7.13H36.634C37.6233 7.13 38.3747 7.34933 38.888 7.788C39.4013 8.22667 39.658 8.82867 39.658 9.594C39.658 10.2287 39.4853 10.742 39.14 11.134C38.804 11.526 38.37 11.778 37.838 11.89ZM34.296 11.456H36.424C37.0493 11.456 37.5253 11.3113 37.852 11.022C38.188 10.7327 38.356 10.3267 38.356 9.804C38.356 9.3 38.1927 8.90333 37.866 8.614C37.5393 8.32467 37.04 8.18 36.368 8.18H34.296V11.456ZM36.452 15.936C37.124 15.936 37.642 15.782 38.006 15.474C38.3793 15.166 38.566 14.732 38.566 14.172C38.566 13.6213 38.3747 13.192 37.992 12.884C37.6187 12.5667 37.096 12.408 36.424 12.408H34.296V15.936H36.452ZM50.0532 14.718H45.7132L44.8872 17H43.5152L47.1692 7.312H48.6112L52.2512 17H50.8792L50.0532 14.718ZM49.6892 13.724L47.8832 8.74L46.0772 13.724H49.6892ZM60.7088 7.032C61.9128 7.032 62.9068 7.33067 63.6908 7.928C64.4748 8.516 65.0161 9.32333 65.3148 10.35H63.9708C63.7188 9.69667 63.3128 9.17867 62.7528 8.796C62.1928 8.404 61.5068 8.208 60.6948 8.208C60.0508 8.208 59.4721 8.36667 58.9588 8.684C58.4548 8.992 58.0534 9.44 57.7548 10.028C57.4654 10.6067 57.3208 11.288 57.3208 12.072C57.3208 12.8467 57.4654 13.5233 57.7548 14.102C58.0534 14.6807 58.4548 15.1287 58.9588 15.446C59.4721 15.754 60.0508 15.908 60.6948 15.908C61.5068 15.908 62.1928 15.7167 62.7528 15.334C63.3128 14.942 63.7188 14.4193 63.9708 13.766H65.3148C65.0161 14.7927 64.4748 15.6047 63.6908 16.202C62.9068 16.79 61.9128 17.084 60.7088 17.084C59.7848 17.084 58.9681 16.874 58.2588 16.454C57.5494 16.0247 56.9941 15.432 56.5928 14.676C56.2008 13.9107 56.0048 13.0427 56.0048 12.072C56.0048 11.092 56.2008 10.2193 56.5928 9.454C56.9941 8.68867 57.5494 8.096 58.2588 7.676C58.9681 7.24667 59.7848 7.032 60.7088 7.032ZM72.2685 12.016L76.7765 17H75.2085L71.0925 12.394V17H69.8185V7.13H71.0925V11.708L75.2225 7.13H76.7765L72.2685 12.016ZM82.1093 8.166V11.54H85.8613V12.52H82.1093V15.964H86.2813V17H80.8353V7.13H86.2813V8.166H82.1093ZM98.3893 17H97.1153L91.9913 9.202V17H90.7173V7.13H91.9913L97.1153 14.942V7.13H98.3893V17ZM111.554 12.058C111.554 13.0567 111.353 13.9293 110.952 14.676C110.551 15.4133 109.958 15.9873 109.174 16.398C108.399 16.7993 107.466 17 106.374 17H103.238V7.13H106.374C107.466 7.13 108.399 7.33067 109.174 7.732C109.958 8.124 110.551 8.69333 110.952 9.44C111.353 10.1773 111.554 11.05 111.554 12.058ZM106.276 15.852C107.564 15.852 108.549 15.5207 109.23 14.858C109.911 14.1953 110.252 13.262 110.252 12.058C110.252 10.854 109.911 9.92067 109.23 9.258C108.558 8.586 107.573 8.25 106.276 8.25H104.512V15.852H106.276ZM132.216 7.298V17H130.942V9.258L127.848 17H126.714L123.606 9.286V17H122.332V7.298H123.858L127.302 15.446L130.69 7.298H132.216ZM138.328 7.13V17H137.054V7.13H138.328ZM150.848 17H149.574L144.45 9.202V17H143.176V7.13H144.45L149.574 14.942V7.13H150.848V17ZM156.971 8.166V11.54H160.723V12.52H156.971V15.964H161.143V17H155.697V7.13H161.143V8.166H156.971ZM170.815 17L168.239 12.968H166.853V17H165.579V7.13H168.827C169.947 7.13 170.787 7.40067 171.347 7.942C171.907 8.474 172.187 9.18333 172.187 10.07C172.187 10.8727 171.963 11.5213 171.515 12.016C171.067 12.5013 170.418 12.8047 169.569 12.926L172.257 17H170.815ZM166.853 12.044H168.715C170.162 12.044 170.885 11.4093 170.885 10.14C170.885 8.87067 170.162 8.236 168.715 8.236H166.853V12.044Z" fill="white"/>
</svg>
